# xmcd
#
# Track frame offsets:
#	150
#	12035
#	28224
#	40047
#	54914
#	74782
#	88331
#	99343
#	117331
#	135416
#	145999
#	159372
#	173910
#	184685
#	210516
#
# Disc length: 4440 seconds
#
# Revision: 1
# Processed by: cddbd v1.5.2PL0 Copyright (c) Steve Scherf et al.
# Submitted via: audiograbber 1.83.01
#
DISCID=ca11560f
DTITLE=Frank Aguiar - Um show de forró - Vol.6
DYEAR=1900
DGENRE=Country
TTITLE0=Homenagem as sogras
TTITLE1=Os cinco bichos que a mulher mais gosta
TTITLE2=Esperando na janela
TTITLE3=Muador com muador
TTITLE4=Sou apenas alguém
TTITLE5=Morena brasileira
TTITLE6=A garagem da vizinha
TTITLE7=Fã número 1
TTITLE8=Amor ou paixão
TTITLE9=Dançando com o pom-pom
TTITLE10=O xote das meninas
TTITLE11=Cãozinho de pelúcia
TTITLE12=Melo do pitbull
TTITLE13=Me pegue pra chamegar
TTITLE14=Dados
EXTD=
EXTT0=
EXTT1=
EXTT2=
EXTT3=
EXTT4=
EXTT5=
EXTT6=
EXTT7=
EXTT8=
EXTT9=
EXTT10=
EXTT11=
EXTT12=
EXTT13=
EXTT14=
PLAYORDER=
